<svg xmlns="http://www.w3.org/2000/svg" width="29" height="56" fill="none"><path fill="#F8D24E" d="M27.928 25.698c2.874-7.687-3.077-11.894-7.021-14.66-.754-.565-1.508-1.093-2.12-1.576a7.345 7.345 0 0 1-2.316-3.452 7.251 7.251 0 0 1-.059-4.138.792.792 0 0 0-.234-.802.82.82 0 0 0-.83-.165 13.352 13.352 0 0 0-3.657 2.149A8.599 8.599 0 0 0 9.2 6.053a8.471 8.471 0 0 0-.897 3.773 10.019 10.019 0 0 0-1.953 2.015 7.316 7.316 0 0 0-1.44 4.72 9.339 9.339 0 0 0-2.612 4.017 9.224 9.224 0 0 0-.262 4.764 2.54 2.54 0 0 0-1.059 1.234 2.494 2.494 0 0 0-.083 1.615c.153.533.478 1.002.927 1.334a2.59 2.59 0 0 0 1.557.508h.053v4.37c0 .444.18.87.497 1.184.319.313.75.49 1.2.49h1.32L8.6 54.439c.044.409.24.787.551 1.061.31.275.713.426 1.13.426h8.945c.418-.001.82-.153 1.132-.427.311-.274.51-.651.558-1.06l2.149-18.362h1.32c.45 0 .881-.177 1.2-.49a1.66 1.66 0 0 0 .497-1.183v-4.372h.053a2.59 2.59 0 0 0 1.818-.742c.482-.475.753-1.12.753-1.793a2.473 2.473 0 0 0-.754-1.806l-.023.007ZM8.569 11.752c1.086 4.022 5.28 5.605 9.104 7.018a.831.831 0 0 0 1-.106.81.81 0 0 0 .25-.642.801.801 0 0 0-.34-.601.829.829 0 0 0-.33-.138c-4.118-1.539-8.002-2.974-8.296-7.085a6.79 6.79 0 0 1 .627-3.288 6.896 6.896 0 0 1 2.126-2.607c.574-.47 1.19-.889 1.84-1.25a9.527 9.527 0 0 0 0 1.547 8.713 8.713 0 0 0 .96 3.378 8.833 8.833 0 0 0 2.223 2.74c.626.528 1.403 1.071 2.262 1.65 1.984 1.406 4.239 2.974 5.672 5.1a7.844 7.844 0 0 1 .822 7.546h-3.334c-6.87 0-14.767-1.873-16.328-7.122a5.939 5.939 0 0 1 .007-3.301 6.01 6.01 0 0 1 1.773-2.802l-.038-.037Zm6.185 25.343 2.519 2.483-2.52 2.483-2.518-2.498 2.519-2.468Zm5.777 6.52-2.082 2.052-2.519-2.483 2.52-2.476 2.186 2.148-.105.759Zm-5.777 5.694-2.52-2.483 2.52-2.483 2.519 2.483-2.52 2.483Zm-1.154-6.11-2.52 2.483-2.096-2.067-.09-.744 2.187-2.148 2.519 2.476Zm-3.68 3.627-.506.498-.128-1.13.633.632Zm-.265 2.543 1.426-1.405 2.768 2.75c.014.056.031.11.052.164H9.828l-.174-1.51Zm8.78-1.405 1.425 1.405-.174 1.487H15.5l2.934-2.892Zm1.658-.64-.505-.498.641-.632-.136 1.13Zm.755-6.497-1.26-1.264 1.599-1.576-.34 2.84Zm-2.421-2.394-2.391-2.349h4.782l-2.391 2.35Zm-7.354 0-2.39-2.349h4.781l-2.39 2.35Zm8.146 15.88H10.28a.06.06 0 0 1-.052-.052l-.212-1.785h9.473l-.204 1.785a.06.06 0 0 1-.06.052h-.007Zm6.916-25.901H23.51a.834.834 0 0 0-.631.207.81.81 0 0 0-.27.6.8.8 0 0 0 .27.6.824.824 0 0 0 .631.206h.935v4.371a.059.059 0 0 1-.02.038.06.06 0 0 1-.04.014H5.099a.06.06 0 0 1-.04-.014.06.06 0 0 1-.02-.038v-4.37h14.94a.826.826 0 0 0 .53-.263.803.803 0 0 0 0-1.09.826.826 0 0 0-.53-.261H3.387a.948.948 0 0 1-.715-.238.922.922 0 0 1-.304-.68.91.91 0 0 1 .304-.68.94.94 0 0 1 .715-.238h1.712a.827.827 0 0 0 .53-.262.804.804 0 0 0 0-1.09.827.827 0 0 0-.53-.262H3.591a7.859 7.859 0 0 1 .103-3.411 7.926 7.926 0 0 1 1.54-3.056c.529 1.62 1.886 3.836 5.28 5.598 3.19 1.642 7.414 2.483 12.55 2.483h3.017a.948.948 0 0 1 .715.237.923.923 0 0 1 .304.68.91.91 0 0 1-.304.681.94.94 0 0 1-.715.238h.053Z"/></svg>