<svg aria-hidden="true" style="width:0;height:0;position:absolute;overflow:hidden" xmlns="http://www.w3.org/2000/svg"><defs><symbol id="icon-button-vector" viewBox="0 0 16 32"><path d="M.611.704A2.587 2.587 0 0 0 0 2.379v.028-.001c0 .637.221 1.248.611 1.699l10.346 11.91L.608 27.919a2.596 2.596 0 0 0-.586 1.648v.05-.003c.003.63.224 1.232.611 1.68s.912.698 1.459.704a1.947 1.947 0 0 0 1.47-.673l.002-.002 11.821-13.61c.382-.45.614-1.037.614-1.679v-.021.001a2.61 2.61 0 0 0-.611-1.702L3.567.702A1.958 1.958 0 0 0 2.09-.002h-.001c-.554 0-1.088.256-1.482.704z"/></symbol></defs></svg>