<svg aria-hidden="true" style="width:0;height:0;position:absolute;overflow:hidden" xmlns="http://www.w3.org/2000/svg"><defs><symbol id="icon-button-vector" viewBox="0 0 16 32"><path d="M.611.704A2.587 2.587 0 0 0 0 2.379v.028-.001c0 .637.221 1.248.611 1.699l10.346 11.91L.608 27.919a2.596 2.596 0 0 0-.586 1.648v.05-.003c.003.63.224 1.232.611 1.68s.912.698 1.459.704a1.947 1.947 0 0 0 1.47-.673l.002-.002 11.821-13.61c.382-.45.614-1.037.614-1.679v-.021.001a2.61 2.61 0 0 0-.611-1.702L3.567.702A1.958 1.958 0 0 0 2.09-.002h-.001c-.554 0-1.088.256-1.482.704z"/></symbol><symbol id="close-line" viewBox="0 0 20 20"><path d="m10.783 10 4.606-4.606a.556.556 0 0 0-.784-.783L10 9.217 5.394 4.606a.558.558 0 0 0-.789.788L9.216 10l-4.61 4.605a.556.556 0 1 0 .783.784l4.61-4.606 4.606 4.606a.556.556 0 0 0 .784-.784L10.783 10Z"/></symbol><symbol id="icon-close" viewBox="0 0 32 32"><path d="M18.148 16 30.78 3.368a1.521 1.521 0 0 0-.08-2.069 1.525 1.525 0 0 0-2.068-.08L16 13.851 3.368 1.203a1.53 1.53 0 0 0-2.164 2.164l12.648 12.632L1.204 28.631a1.513 1.513 0 0 0-.428 1.714c.077.196.193.373.341.522s.326.265.522.341a1.522 1.522 0 0 0 1.714-.428l12.648-12.632L28.633 30.78a1.52 1.52 0 0 0 2.068-.08 1.523 1.523 0 0 0 .08-2.069L18.149 15.999z"/></symbol><symbol id="icon-up" viewBox="0 0 32 32"><path fill="#fff" style="fill:var(--color1,#fff)" d="M22.468 10.085v4.823L17.66 10.1v18.285h-3.32V10.1l-4.832 4.83v-4.823L16 3.617z"/><path fill="none" stroke="#231f20" style="stroke:var(--color2,#231f20)" stroke-linejoin="round" stroke-linecap="round" stroke-miterlimit="10" stroke-width=".833" d="M22.468 10.085v4.823L17.66 10.1v18.285h-3.32V10.1l-4.832 4.83v-4.823L16 3.617z"/></symbol></defs></svg>