<svg aria-hidden="true" style="position: absolute; width: 0; height: 0; overflow: hidden;" version="1.1" xmlns="http://www.w3.org/2000/svg" xmlns:xlink="http://www.w3.org/1999/xlink">
<defs>
    <!-- button-vector -->
<symbol id="icon-button-vector" viewBox="0 0 16 32">
<path d="M0.611 0.704c-0.38 0.449-0.611 1.035-0.611 1.675 0 0.009 0 0.019 0 0.028v-0.001c0 0.637 0.221 1.248 0.611 1.699l10.346 11.91-10.349 11.904c-0.365 0.446-0.586 1.021-0.586 1.648 0 0.017 0 0.033 0 0.050l-0-0.003c0.003 0.63 0.224 1.232 0.611 1.68s0.912 0.698 1.459 0.704c0.587-0.001 1.113-0.262 1.47-0.673l0.002-0.002 11.821-13.61c0.382-0.45 0.614-1.037 0.614-1.679 0-0.007-0-0.014-0-0.021v0.001c0-0.64-0.221-1.251-0.611-1.702l-11.821-13.61c-0.357-0.425-0.885-0.696-1.477-0.704l-0.001-0c-0.554 0-1.088 0.256-1.482 0.704z"></path>
</symbol>
</defs>
</svg>
