<svg aria-hidden="true" style="position: absolute; width: 0; height: 0; overflow: hidden;" version="1.1"
    xmlns="http://www.w3.org/2000/svg" xmlns:xlink="http://www.w3.org/1999/xlink">
    <defs>
        <!-- button-vector -->
        <symbol id="icon-button-vector" viewBox="0 0 16 32">
            <path
                d="M0.611 0.704c-0.38 0.449-0.611 1.035-0.611 1.675 0 0.009 0 0.019 0 0.028v-0.001c0 0.637 0.221 1.248 0.611 1.699l10.346 11.91-10.349 11.904c-0.365 0.446-0.586 1.021-0.586 1.648 0 0.017 0 0.033 0 0.050l-0-0.003c0.003 0.63 0.224 1.232 0.611 1.68s0.912 0.698 1.459 0.704c0.587-0.001 1.113-0.262 1.47-0.673l0.002-0.002 11.821-13.61c0.382-0.45 0.614-1.037 0.614-1.679 0-0.007-0-0.014-0-0.021v0.001c0-0.64-0.221-1.251-0.611-1.702l-11.821-13.61c-0.357-0.425-0.885-0.696-1.477-0.704l-0.001-0c-0.554 0-1.088 0.256-1.482 0.704z">
            </path>
        </symbol>
        <symbol id="icon-close" viewBox="0 0 32 32">
            <path
                d="M18.148 16l12.632-12.632c0.25-0.292 0.38-0.666 0.365-1.050s-0.174-0.747-0.445-1.019c-0.271-0.271-0.635-0.43-1.018-0.445s-0.759 0.116-1.050 0.365l-12.632 12.632-12.632-12.648c-0.287-0.287-0.676-0.448-1.082-0.448s-0.795 0.161-1.082 0.448c-0.287 0.287-0.448 0.676-0.448 1.082s0.161 0.795 0.448 1.082l12.648 12.632-12.648 12.632c-0.159 0.137-0.289 0.305-0.381 0.494s-0.143 0.395-0.151 0.605c-0.008 0.21 0.027 0.419 0.104 0.615s0.193 0.373 0.341 0.522 0.326 0.265 0.522 0.341c0.196 0.077 0.405 0.112 0.615 0.104s0.416-0.060 0.605-0.151 0.357-0.221 0.494-0.381l12.648-12.632 12.632 12.632c0.291 0.25 0.666 0.38 1.050 0.365s0.747-0.174 1.018-0.445c0.272-0.272 0.43-0.635 0.445-1.019s-0.116-0.758-0.365-1.050l-12.632-12.632z">
            </path>
        </symbol>
    </defs>
</svg>