<svg aria-hidden="true" style="position: absolute; width: 0; height: 0; overflow: hidden;" version="1.1" xmlns="http://www.w3.org/2000/svg" xmlns:xlink="http://www.w3.org/1999/xlink">
<defs>
    <!-- button-vector -->
<symbol id="icon-button-vector" viewBox="0 0 16 32">
<path d="M0.611 0.704c-0.38 0.449-0.611 1.035-0.611 1.675 0 0.009 0 0.019 0 0.028v-0.001c0 0.637 0.221 1.248 0.611 1.699l10.346 11.91-10.349 11.904c-0.365 0.446-0.586 1.021-0.586 1.648 0 0.017 0 0.033 0 0.050l-0-0.003c0.003 0.63 0.224 1.232 0.611 1.68s0.912 0.698 1.459 0.704c0.587-0.001 1.113-0.262 1.47-0.673l0.002-0.002 11.821-13.61c0.382-0.45 0.614-1.037 0.614-1.679 0-0.007-0-0.014-0-0.021v0.001c0-0.64-0.221-1.251-0.611-1.702l-11.821-13.61c-0.357-0.425-0.885-0.696-1.477-0.704l-0.001-0c-0.554 0-1.088 0.256-1.482 0.704z"></path>
</symbol>
<!-- modal -->
<symbol id="close-line" viewBox="0 0 20 20">
<path d="M10.7831 9.99997L15.3887 5.39441C15.4797 5.28813 15.5272 5.15142 15.5218 5.0116C15.5164 4.87178 15.4585 4.73915 15.3595 4.64021C15.2606 4.54127 15.128 4.48331 14.9881 4.47791C14.8483 4.4725 14.7116 4.52006 14.6053 4.61108L9.99977 9.21663L5.39421 4.60552C5.2896 4.50091 5.14771 4.44214 4.99977 4.44214C4.85182 4.44214 4.70994 4.50091 4.60532 4.60552C4.50071 4.71014 4.44194 4.85202 4.44194 4.99997C4.44194 5.14791 4.50071 5.2898 4.60532 5.39441L9.21643 9.99997L4.60532 14.6055C4.54717 14.6553 4.49993 14.7166 4.46659 14.7855C4.43324 14.8545 4.4145 14.9295 4.41155 15.006C4.40859 15.0826 4.42148 15.1589 4.44941 15.2301C4.47734 15.3014 4.51971 15.3662 4.57385 15.4203C4.62799 15.4745 4.69274 15.5168 4.76403 15.5448C4.83532 15.5727 4.91162 15.5856 4.98813 15.5826C5.06464 15.5797 5.13972 15.5609 5.20864 15.5276C5.27757 15.4942 5.33885 15.447 5.38866 15.3889L9.99977 10.7833L14.6053 15.3889C14.7116 15.4799 14.8483 15.5274 14.9881 15.522C15.128 15.5166 15.2606 15.4587 15.3595 15.3597C15.4585 15.2608 15.5164 15.1282 15.5218 14.9883C15.5272 14.8485 15.4797 14.7118 15.3887 14.6055L10.7831 9.99997Z" />
</g>
</symbol>
<symbol id="icon-close" viewBox="0 0 32 32">
            <path
                d="M18.148 16l12.632-12.632c0.25-0.292 0.38-0.666 0.365-1.050s-0.174-0.747-0.445-1.019c-0.271-0.271-0.635-0.43-1.018-0.445s-0.759 0.116-1.050 0.365l-12.632 12.632-12.632-12.648c-0.287-0.287-0.676-0.448-1.082-0.448s-0.795 0.161-1.082 0.448c-0.287 0.287-0.448 0.676-0.448 1.082s0.161 0.795 0.448 1.082l12.648 12.632-12.648 12.632c-0.159 0.137-0.289 0.305-0.381 0.494s-0.143 0.395-0.151 0.605c-0.008 0.21 0.027 0.419 0.104 0.615s0.193 0.373 0.341 0.522 0.326 0.265 0.522 0.341c0.196 0.077 0.405 0.112 0.615 0.104s0.416-0.060 0.605-0.151 0.357-0.221 0.494-0.381l12.648-12.632 12.632 12.632c0.291 0.25 0.666 0.38 1.050 0.365s0.747-0.174 1.018-0.445c0.272-0.272 0.43-0.635 0.445-1.019s-0.116-0.758-0.365-1.050l-12.632-12.632z">
            </path>
        </symbol>
</defs>
</svg>