<svg aria-hidden="true" style="position: absolute; width: 0; height: 0; overflow: hidden;" version="1.1" xmlns="http://www.w3.org/2000/svg" xmlns:xlink="http://www.w3.org/1999/xlink">
<defs>
<symbol id="close" viewBox="0 0 32 32">
<path fill="#fcfcfc" style="fill: var(--color1, #fcfcfc)" d="M23.884 6.706l-7.884 7.884-7.884-7.884c-0.19-0.174-0.439-0.267-0.696-0.261s-0.502 0.11-0.684 0.292c-0.182 0.182-0.286 0.427-0.292 0.684s0.088 0.506 0.261 0.696l7.88 7.884-7.882 7.882c-0.096 0.092-0.173 0.202-0.226 0.324s-0.081 0.253-0.083 0.386 0.023 0.265 0.073 0.388c0.050 0.123 0.124 0.235 0.218 0.329s0.206 0.169 0.329 0.219 0.255 0.075 0.388 0.074c0.133-0.002 0.264-0.029 0.386-0.082s0.232-0.13 0.324-0.226l7.886-7.882 7.884 7.884c0.19 0.174 0.439 0.267 0.696 0.262s0.502-0.11 0.684-0.292c0.182-0.182 0.286-0.427 0.292-0.684s-0.088-0.506-0.262-0.696l-7.884-7.884 7.884-7.886c0.096-0.092 0.173-0.202 0.226-0.324s0.081-0.253 0.083-0.386c0.002-0.133-0.023-0.265-0.073-0.388s-0.124-0.235-0.218-0.329c-0.094-0.094-0.206-0.169-0.329-0.219s-0.255-0.075-0.388-0.074-0.264 0.029-0.386 0.082c-0.122 0.053-0.232 0.13-0.324 0.226v0.002z"></path>
</symbol>
<symbol id="menu" viewBox="0 0 32 32">
<path fill="#fff" style="fill: var(--color2, #fff)" d="M26.733 14.667h-21.467c-0.7 0-1.267 0.567-1.267 1.267v0.133c0 0.7 0.567 1.267 1.267 1.267h21.467c0.7 0 1.267-0.567 1.267-1.267v-0.133c0-0.7-0.567-1.267-1.267-1.267z"></path>
<path fill="#fff" style="fill: var(--color2, #fff)" d="M26.733 21.333h-21.467c-0.7 0-1.267 0.567-1.267 1.267v0.133c0 0.7 0.567 1.267 1.267 1.267h21.467c0.7 0 1.267-0.567 1.267-1.267v-0.133c0-0.7-0.567-1.267-1.267-1.267z"></path>
<path fill="#fff" style="fill: var(--color2, #fff)" d="M26.733 8h-21.467c-0.7 0-1.267 0.567-1.267 1.267v0.133c0 0.7 0.567 1.267 1.267 1.267h21.467c0.7 0 1.267-0.567 1.267-1.267v-0.133c0-0.7-0.567-1.267-1.267-1.267z"></path>
</symbol>
<symbol id="right-bold" viewBox="0 0 32 32">
<path d="M10.586 3.272c-0.375 0.375-0.586 0.884-0.586 1.414s0.211 1.039 0.586 1.414l9.9 9.9-9.9 9.9c-0.364 0.377-0.566 0.882-0.561 1.407s0.215 1.026 0.586 1.397 0.872 0.581 1.397 0.586c0.524 0.005 1.030-0.197 1.407-0.561l11.314-11.314c0.375-0.375 0.586-0.884 0.586-1.414s-0.211-1.039-0.586-1.414l-11.314-11.314c-0.375-0.375-0.884-0.586-1.414-0.586s-1.039 0.211-1.414 0.586z"></path>
</symbol>
</defs>
</svg>
<svg width="0" height="0" class="hidden">
  <symbol fill="none" xmlns="http://www.w3.org/2000/svg" viewBox="0 0 34 34" id="github">
    <circle cx="17" cy="17" r="17" fill="#F8D24E"></circle>
    <path d="M17 7C11.5074 7 7 11.5074 7 17C7 21.687 10.2889 25.9447 14.6562 27V23.6916C14.2235 23.7863 13.8253 23.7891 13.3847 23.6592C12.7938 23.4848 12.3136 23.0912 11.9571 22.4909C11.7299 22.1076 11.3272 21.6919 10.9072 21.7224L10.8042 20.5551C11.7125 20.4773 12.4984 21.1086 12.9648 21.8923C13.172 22.2408 13.4105 22.4451 13.7166 22.5354C14.0125 22.6226 14.3302 22.5807 14.7003 22.45C14.7933 21.7089 15.1328 21.4315 15.3893 21.0408V21.0402C12.7846 20.6517 11.7466 19.2699 11.3346 18.1792C10.7886 16.731 11.0816 14.9218 12.047 13.7784C12.0658 13.7561 12.0996 13.6978 12.0865 13.6571C11.6439 12.32 12.1833 11.2139 12.2031 11.0965C12.714 11.2476 12.797 10.9445 14.4222 11.9319L14.7031 12.1007C14.8206 12.1707 14.7837 12.1308 14.9012 12.1219C15.5797 11.9376 16.295 11.8358 16.9998 11.8267C17.71 11.8358 18.4207 11.9376 19.1274 12.1294L19.2183 12.1385C19.2104 12.1373 19.243 12.1328 19.2978 12.1001C21.328 10.8704 21.2551 11.2723 21.7995 11.0953C21.8192 11.2128 22.3514 12.3369 21.9135 13.6571C21.8544 13.839 23.6736 15.5048 22.6653 18.1787C22.2533 19.2699 21.2154 20.6517 18.6107 21.0402V21.0408C18.9446 21.5497 19.3457 21.8204 19.3436 22.8702V27C23.7111 25.9447 26.9998 21.687 26.9998 17C27 11.5074 22.4926 7 17 7V7Z" fill="#84A178"></path>
  </symbol>
</svg>
<svg width="0" height="0" class="hidden">
  <symbol fill="none" xmlns="http://www.w3.org/2000/svg" viewBox="0 0 34 34" id="telegram">
    <g clip-path="url(#clip0_11708_17871)">
      <circle cx="17" cy="17" r="17" fill="#F8D24E"></circle>
      <path d="M13.6713 19.5238L13.3338 23.9538C13.8167 23.9538 14.0258 23.7602 14.2765 23.5278L16.5401 21.5088L21.2305 24.7146C22.0907 25.162 22.6968 24.9264 22.9289 23.976L26.0076 10.5116L26.0085 10.5108C26.2813 9.32401 25.5486 8.85991 24.7105 9.15106L6.61358 15.6175C5.3785 16.0649 5.3972 16.7075 6.40362 16.9987L11.0303 18.3418L21.7771 12.0658C22.2829 11.7532 22.7427 11.9261 22.3645 12.2387L13.6713 19.5238Z" fill="#84A178"></path>
    </g>
    <defs>
      <clipPath id="clip0_11708_17871">
        <rect width="34" height="34" fill="white"></rect>
      </clipPath>
    </defs>
  </symbol>
</svg>
<svg width="0" height="0" class="hidden">
  <symbol fill="none" xmlns="http://www.w3.org/2000/svg" viewBox="0 0 34 34" id="facebook">
    <g clip-path="url(#clip0_11708_17864)">
      <path d="M17 34C26.3888 34 34 26.3888 34 17C34 7.61116 26.3888 0 17 0C7.61116 0 0 7.61116 0 17C0 26.3888 7.61116 34 17 34Z" fill="#F8D24E"></path>
      <path d="M21.7235 16.9804H18.9502V27.2001H14.7484V16.9804H12.75V13.3888H14.7484V11.0646C14.7484 9.40261 15.5333 6.80005 18.9876 6.80005L22.1 6.81315V10.2994H19.8417C19.4713 10.2994 18.9505 10.4856 18.9505 11.2784V13.3922H22.0906L21.7235 16.9804Z" fill="#84A178"></path>
    </g>
    <defs>
      <clipPath id="clip0_11708_17864">
        <rect width="34" height="34" fill="white"></rect>
      </clipPath>
    </defs>
  </symbol>
</svg>
