<svg aria-hidden="true" style="position:absolute;width:0;height:0;overflow:hidden" xmlns="http://www.w3.org/2000/svg"><defs><symbol id="logo" viewBox="0 0 32 32"><path fill="#d41443" style="fill: var(--color1, #d41443)" d="M32 16c0 8.837-7.163 16-16 16s-16-7.163-16-16c0-8.837 7.163-16 16-16s16 7.163 16 16z"></path><path fill="#fff" style="fill: var(--color2, #fff)" d="M16.785 1.923c-1.535 0.13-2.619 0.537-3.31 1.162-0.546 0.494-0.809 1.103-0.899 1.73-0.655 0.077-1.271 0.417-1.606 0.811-0.329 0.396-0.523 0.861-0.618 1.305-0.041 0.19-0.063 0.373-0.066 0.551-0.358 0.042-0.712 0.188-0.966 0.453-0.863 0.904-1.498 2.162-1.44 3.373 0.024 0.632 0.248 1.279 0.75 1.703-0.555 0.192-0.968 0.645-0.945 1.193-0.030 0.489 0.12 1.027 0.482 1.17 0.234 0.132 0.415 0.16 0.591 0.175 0.001 1.362 0.075 2.889 1.052 3.882-0.034 0.196-0.107 0.584-0.039 1.046 0.074 0.502 0.429 1.083 1.183 1.405l0.978 7.473c0.066 0.503 0.45 0.901 1.049 1.024 2.23 0.459 4.462 0.452 6.669 0 0.599-0.123 0.986-0.52 1.052-1.024l0.979-7.479c0.433-0.181 0.754-0.439 0.939-0.73 0.143-0.223 0.044-0.502-0.219-0.622-0.331-0.124-0.588-0.042-0.733 0.185-0.102 0.161-0.259 0.301-0.638 0.412-2.938 0.511-5.992 0.663-9.412 0.003-0.63-0.18-0.723-0.42-0.773-0.764-0.026-0.175 0.011-0.367 0.036-0.551 2.651 0.697 5.080 1.003 7.633 0.733 0.295-0.032 0.504-0.26 0.467-0.51-0.036-0.251-0.306-0.43-0.602-0.399-2.576 0.268-5.568-0.106-7.688-0.755-0.9-0.969-0.825-2.153-0.83-3.244 2.536 0.338 5.071 0.482 7.63 0.411 0.351 0.871 1.163 1.021 2.069 0.852v1.458c-0 0.753 0.734 1.375 1.623 1.375s1.619-0.622 1.619-1.375v-0.542c0.17 0.052 0.349 0.086 0.539 0.086 0.889 0 1.623-0.623 1.623-1.376v-3.244c0.010-1.483-1.032-3.281-2.835-3.874-0.279-1.222-0.746-2.044-1.389-2.574-0.326-0.269-0.689-0.451-1.066-0.576 0.123-0.45 0.139-0.817 0.053-1.137-0.212-0.626-0.756-0.964-1.292-1.352-0.122-0.122-0.191-0.219-0.179-0.511 0.013-0.333-0.065-0.667-0.316-0.94-0.227-0.424-0.592-0.4-1.152-0.395v0.001zM17.083 2.879c0.041 0.044 0.099 0.17 0.092 0.348-0.019 0.481 0.173 0.876 0.435 1.136 0.422 0.295 0.83 0.627 1.057 0.959 0.039 0.146 0.044 0.375-0.050 0.725-0.819-0.105-1.716-0.023-2.463-0.059-1.129-0.057-1.628-0.547-2.518-0.966 0.051-0.512 0.234-0.954 0.627-1.309 0.723-0.531 1.562-0.862 2.819-0.834v0zM13.786 6.178c0.683 0.524 1.519 0.684 2.3 0.726 1.56 0.006 2.714-0.136 3.897 0.585 0.364 0.301 0.702 0.795 0.952 1.601-0.709-0.116-1.447-0.128-2.18-0.1-1.323 0.050-2.655 0.217-3.812 0.173s-2.094-0.271-2.819-0.97c-0.209-0.201-0.456-0.371-0.728-0.501-0.024-0.142-0.035-0.346 0.018-0.594 0.071-0.33 0.231-0.689 0.442-0.943 0.651-0.644 1.325-0.395 1.931 0.024v0zM11.309 8.797c0.963 0.928 2.272 1.227 3.581 1.277s2.666-0.122 3.911-0.169c0.962-0.036 1.838 0.006 2.578 0.234 1.899 0.621 2.418 2.229 2.5 3.21v3.176c0 0.258-0.238 0.46-0.542 0.46s-0.539-0.201-0.539-0.46c-0.001-0.251-0.241-0.455-0.538-0.456-0.298-0.001-0.541 0.203-0.542 0.456v1.832c0 0.258-0.233 0.46-0.538 0.46s-0.542-0.201-0.542-0.46v-2.744c0.001-0.253-0.24-0.459-0.538-0.46-0.286-0.001-0.524 0.188-0.541 0.43-0.012 0.374-0.129 0.489-0.54 0.486-0.452 0.006-0.538-0.232-0.542-0.511v-1.845c-0.004-0.29-0.295-0.483-0.612-0.469-2.28 0.061-4.603 0.003-6.933-0.187-0.733-0.125-1.196-0.364-1.491-0.656-0.306-0.304-0.457-0.684-0.479-1.132-0.043-0.896 0.494-2.021 1.201-2.761 0.449-0.281 0.749 0.006 1.149 0.288v0zM9.255 13.828c2.644 0.284 5.715 0.382 8.139 0.339v0.962c-3.048 0.062-6.046-0.165-8.582-0.513-0.018-0.067-0.039-0.209-0.049-0.443-0.011-0.265 0.159-0.381 0.491-0.345v0zM12.063 22.074c3.052 0.5 5.857 0.415 8.502 0.006l-0.941 7.171c-0.006 0.049-0.189 0.225-0.228 0.233-2.049 0.42-4.094 0.429-6.161 0.003-0.039-0.010-0.225-0.188-0.231-0.237l-0.941-7.176z"></path></symbol><symbol id="burger" viewBox="0 0 46 32"><path fill="none" stroke="#d41443" stroke-width="2.286" style="stroke:var(--color1, #d41443)" d="M0 2.286h45.714M0 16h45.714M0 29.714h45.714"/></symbol><symbol id="close" viewBox="0 0 32 32"><path fill="none" stroke="#fff" stroke-width="2" style="stroke:var(--color2, #fff)" d="m2.519 2 26.963 28M2 29.481 30 2.518"/></symbol><symbol id="facebook" viewBox="0 0 32 32"><path fill="#fff" style="fill:var(--color2, #fff)" d="M20.446 15.982h-2.61v9.619h-3.955v-9.619H12v-3.38h1.881v-2.187c0-1.564.739-4.014 3.99-4.014l2.929.012v3.281h-2.125c-.349 0-.839.175-.839.921v1.989h2.955l-.346 3.377z"/></symbol><symbol id="github" viewBox="0 0 32 32"><path fill="#fff" style="fill:var(--color2, #fff)" d="M16 6.588c-5.169 0-9.412 4.242-9.412 9.412 0 4.411 3.095 8.419 7.206 9.412v-3.114a2.307 2.307 0 0 1-1.197-.03c-.556-.164-1.008-.535-1.344-1.1-.214-.361-.593-.752-.988-.723l-.097-1.099c.855-.073 1.595.521 2.034 1.259.195.328.419.52.708.605.278.082.578.043.926-.08.088-.698.407-.959.648-1.326v-.001c-2.451-.366-3.428-1.666-3.816-2.693-.514-1.363-.238-3.066.671-4.142.018-.021.05-.076.037-.114-.417-1.258.091-2.299.11-2.41.481.142.559-.143 2.089.786l.264.159c.111.066.076.028.186.02A8.031 8.031 0 0 1 16 11.131a8.016 8.016 0 0 1 2.002.285l.086.009c-.007-.001.023-.005.075-.036 1.911-1.157 1.842-.779 2.355-.946.019.111.519 1.169.107 2.411-.056.171 1.657 1.739.708 4.256-.388 1.027-1.365 2.328-3.816 2.693v.001c.314.479.692.734.69 1.722v3.887c4.111-.993 7.206-5 7.206-9.412 0-5.169-4.242-9.412-9.412-9.412z"/></symbol><symbol id="pointer-big" viewBox="0 0 35 32"><path fill="none" stroke="#d41443" stroke-width="6.4" stroke-linecap="round" stroke-linejoin="round" style="stroke:var(--color1, #d41443)" d="M19.2 3.2 32 16 19.2 28.8"/><path fill="none" stroke="#d41443" stroke-width="6.4" stroke-linecap="square" style="stroke:var(--color1, #d41443)" d="M28.8 16H3.2"/></symbol><symbol id="pointer-small" viewBox="0 0 19 32"><path fill="none" stroke-width="6.4" stroke-linecap="round" stroke-linejoin="round" d="M3.2 3.2 16 16 3.2 28.8"/></symbol><symbol id="quote-marks" viewBox="0 0 43 32"><path fill="#e1e1e1" style="fill:var(--color4, #e1e1e1)" d="M32.014 0c1.929 0 3.75.52 5.464 1.561s3.107 2.537 4.179 4.488C42.686 8 43.2 10.298 43.2 12.943s-.643 5.225-1.929 7.74c-.429.911-1.2 2.081-2.314 3.512a63.368 63.368 0 0 1-3.214 3.707L31.693 32 28.8 27.187a22.03 22.03 0 0 0 5.336-4.683c1.543-1.821 2.314-3.491 2.314-5.008 0-.78-.171-1.409-.514-1.886a8.359 8.359 0 0 1-5.014 1.626c-1.329 0-2.593-.412-3.793-1.236a8.555 8.555 0 0 1-2.957-3.122c-.771-1.258-1.157-2.558-1.157-3.902 0-1.518.45-2.97 1.35-4.358a10.222 10.222 0 0 1 3.407-3.382C29.143.412 30.558 0 32.015 0zM8.936 0c1.929 0 3.75.52 5.464 1.561s3.107 2.537 4.179 4.488c1.029 1.951 1.543 4.249 1.543 6.894 0 1.864-.236 3.534-.707 5.008-.471 1.518-1.286 3.1-2.443 4.748-1.114 1.561-2.164 2.862-3.15 3.902-.986 1.084-2.7 2.884-5.143 5.398l-2.893-4.813a22.03 22.03 0 0 0 5.336-4.683c1.543-1.821 2.314-3.491 2.314-5.008 0-.78-.171-1.409-.514-1.886a8.359 8.359 0 0 1-5.014 1.626c-1.329 0-2.593-.412-3.793-1.236a8.555 8.555 0 0 1-2.957-3.122C.387 11.619.001 10.319.001 8.975c0-1.518.429-2.97 1.286-4.358S3.28 2.102 4.694 1.235C6.065.411 7.48-.001 8.937-.001z"/></symbol><symbol id="reviews-points" viewBox="0 0 256 32"><path fill="#c7133e" style="fill:var(--color5, #c7133e)" d="M144 16c0 8.837-7.163 16-16 16s-16-7.163-16-16 7.163-16 16-16 16 7.163 16 16zM32 16c0 8.837-7.163 16-16 16S0 24.837 0 16 7.163 0 16 0s16 7.163 16 16zM256 16c0 8.837-7.163 16-16 16s-16-7.163-16-16 7.163-16 16-16 16 7.163 16 16z"/></symbol><symbol id="telegram" viewBox="0 0 32 32"><path fill="#fff" style="fill:var(--color2, #fff)" d="m12.867 18.375-.318 4.169c.454 0 .651-.182.887-.401l2.13-1.9 4.415 3.017c.81.421 1.38.199 1.599-.695l2.898-12.672.001-.001c.257-1.117-.433-1.554-1.222-1.28L6.225 14.698c-1.162.421-1.145 1.026-.198 1.3l4.355 1.264 10.115-5.907c.476-.294.909-.131.553.163l-8.182 6.857z"/></symbol><symbol id="products-points" viewBox="0 0 139 32"><path fill="#fff" style="fill: var(--color1, #fff)" d="M85.333 16c0 8.837-7.163 16-16 16s-16-7.163-16-16c0-8.837 7.163-16 16-16s16 7.163 16 16z"></path><path fill="#fff" style="fill: var(--color1, #fff)" d="M32 16c0 8.837-7.163 16-16 16s-16-7.163-16-16c0-8.837 7.163-16 16-16s16 7.163 16 16z"></path><path fill="#fff" style="fill: var(--color1, #fff)" d="M138.667 16c0 8.837-7.163 16-16 16s-16-7.163-16-16c0-8.837 7.163-16 16-16s16 7.163 16 16z"></path></symbol></defs></svg>